<svg width="39" height="37" viewBox="0 0 39 37" fill="none" xmlns="http://www.w3.org/2000/svg">
<path d="M0.275781 34.4H3.77578C4.24245 34.4 4.55912 34.3167 4.72578 34.15C4.89245 33.95 4.97578 33.6333 4.97578 33.2V3.2C4.97578 2.73333 4.89245 2.41667 4.72578 2.25C4.55912 2.08333 4.24245 2 3.77578 2H0.275781V0.399999H18.0758C20.4091 0.399999 22.4758 0.799999 24.2758 1.6C26.1091 2.36667 27.5258 3.46667 28.5258 4.9C29.5591 6.3 30.0758 7.9 30.0758 9.7C30.0758 11.5333 29.5591 13.1667 28.5258 14.6C27.5258 16.0333 26.1091 17.1667 24.2758 18C22.4758 18.8 20.4091 19.2 18.0758 19.2H12.3758V33.2C12.3758 33.6333 12.4591 33.95 12.6258 34.15C12.8258 34.3167 13.1424 34.4 13.5758 34.4H17.9758V36H0.275781V34.4ZM17.3258 17.6C19.0591 17.6 20.2758 16.9 20.9758 15.5C21.7091 14.1 22.0758 12.1667 22.0758 9.7C22.0758 7.26667 21.7258 5.38333 21.0258 4.05C20.3258 2.68333 19.0924 2 17.3258 2H13.5758C13.1424 2 12.8258 2.08333 12.6258 2.25C12.4591 2.41667 12.3758 2.73333 12.3758 3.2V17.6H17.3258ZM34.9863 36.6C33.853 36.6 32.9197 36.2333 32.1863 35.5C31.453 34.7667 31.0863 33.8333 31.0863 32.7C31.0863 31.5667 31.453 30.6333 32.1863 29.9C32.9197 29.1667 33.853 28.8 34.9863 28.8C36.1197 28.8 37.053 29.1667 37.7863 29.9C38.5197 30.6333 38.8863 31.5667 38.8863 32.7C38.8863 33.8333 38.5197 34.7667 37.7863 35.5C37.053 36.2333 36.1197 36.6 34.9863 36.6Z" fill="#2E2E2E"/>
</svg>
