<svg width="37" height="38" viewBox="0 0 37 38" fill="none" xmlns="http://www.w3.org/2000/svg">
<path d="M4.54004 21.2634C4.54004 23.9492 5.33648 26.5747 6.82864 28.8079C8.3208 31.0411 10.4417 32.7816 12.923 33.8094C15.4044 34.8373 18.1349 35.1062 20.7691 34.5822C23.4033 34.0582 25.823 32.7649 27.7221 30.8657C29.6213 28.9666 30.9146 26.5469 31.4386 23.9127C31.9626 21.2784 31.6937 18.548 30.6659 16.0666C29.638 13.5853 27.8975 11.4644 25.6643 9.97223C23.4311 8.48006 20.8056 7.68362 18.1198 7.68362H13.5932V2.02539L6.80333 8.81527L13.5932 15.6052V9.94692H18.1198C20.358 9.94692 22.5459 10.6106 24.4069 11.8541C26.2679 13.0976 27.7183 14.8649 28.5749 16.9328C29.4314 19.0006 29.6555 21.2759 29.2188 23.4711C28.7822 25.6663 27.7044 27.6827 26.1217 29.2653C24.5391 30.848 22.5227 31.9258 20.3275 32.3624C18.1324 32.7991 15.857 32.575 13.7892 31.7184C11.7214 30.8619 9.95397 29.4115 8.7105 27.5505C7.46703 25.6895 6.80333 23.5016 6.80333 21.2634H4.54004Z" fill="#5A9BD8"/>
<path d="M22.2261 25.9373C21.726 25.9496 21.23 25.845 20.7776 25.6318C20.3758 25.4279 20.03 25.1287 19.7704 24.7604C19.4865 24.3304 19.2869 23.8503 19.1819 23.3459C19.0483 22.7211 18.9838 22.0835 18.9896 21.4447C18.9864 20.806 19.0509 20.1687 19.1819 19.5435C19.2894 19.0398 19.4889 18.5603 19.7704 18.129C20.03 17.7607 20.3758 17.4615 20.7776 17.2576C21.23 17.0444 21.726 16.9398 22.2261 16.952C22.6962 16.9163 23.1677 17.0015 23.5956 17.1996C24.0235 17.3977 24.3935 17.7021 24.6704 18.0837C25.254 19.0873 25.5294 20.2404 25.4626 21.3994C25.5294 22.5584 25.254 23.7115 24.6704 24.7151C24.4041 25.1134 24.0386 25.4356 23.61 25.6498C23.1815 25.8641 22.7045 25.9632 22.2261 25.9373ZM22.2261 24.5567C22.4542 24.5703 22.6815 24.5191 22.8818 24.409C23.0821 24.2988 23.247 24.1343 23.3577 23.9343C23.6274 23.4047 23.7707 22.8198 23.7764 22.2255V20.6639C23.8013 20.0801 23.6889 19.4987 23.4482 18.9664C23.3217 18.7726 23.1489 18.6134 22.9454 18.5032C22.7419 18.393 22.5141 18.3353 22.2826 18.3353C22.0512 18.3353 21.8234 18.393 21.6199 18.5032C21.4164 18.6134 21.2436 18.7726 21.1171 18.9664C20.8764 19.4987 20.764 20.0801 20.7889 20.6639V22.2255C20.7663 22.8127 20.8786 23.3972 21.1171 23.9343C21.225 24.1316 21.3862 24.2945 21.5823 24.4046C21.7784 24.5146 22.0015 24.5673 22.2261 24.5567ZM12.0412 25.7902V24.4549H14.3045V18.5816L12.1997 19.7133L11.5773 18.5137L14.2027 17.0426H15.8549V24.3983H17.8692V25.7902H12.0412Z" fill="#5A9BD8"/>
</svg>
