<svg width="30" height="30" viewBox="0 0 30 30" fill="none" xmlns="http://www.w3.org/2000/svg">
<g id="jam:close">
<path id="Vector" d="M16.6425 14.875L21.0613 10.455C21.1807 10.3397 21.2759 10.2018 21.3414 10.0493C21.4069 9.89677 21.4414 9.73274 21.4428 9.56677C21.4443 9.4008 21.4126 9.2362 21.3498 9.08258C21.2869 8.92896 21.1941 8.78939 21.0768 8.67202C20.9594 8.55466 20.8198 8.46184 20.6662 8.39899C20.5126 8.33614 20.348 8.30451 20.182 8.30596C20.016 8.3074 19.852 8.34188 19.6995 8.40739C19.547 8.4729 19.4091 8.56813 19.2938 8.68752L14.8738 13.1063L10.455 8.68752C10.3397 8.56813 10.2018 8.4729 10.0493 8.40739C9.89677 8.34188 9.73274 8.3074 9.56677 8.30596C9.4008 8.30451 9.2362 8.33614 9.08258 8.39899C8.92896 8.46184 8.78939 8.55466 8.67202 8.67202C8.55466 8.78939 8.46184 8.92896 8.39899 9.08258C8.33614 9.2362 8.30451 9.4008 8.30596 9.56677C8.3074 9.73274 8.34188 9.89677 8.40739 10.0493C8.4729 10.2018 8.56813 10.3397 8.68752 10.455L13.1063 14.8738L8.68752 19.2938C8.56813 19.4091 8.4729 19.547 8.40739 19.6995C8.34188 19.852 8.3074 20.016 8.30596 20.182C8.30451 20.348 8.33614 20.5126 8.39899 20.6662C8.46184 20.8198 8.55466 20.9594 8.67202 21.0768C8.78939 21.1941 8.92896 21.2869 9.08258 21.3498C9.2362 21.4126 9.4008 21.4443 9.56677 21.4428C9.73274 21.4414 9.89677 21.4069 10.0493 21.3414C10.2018 21.2759 10.3397 21.1807 10.455 21.0613L14.8738 16.6425L19.2938 21.0613C19.4091 21.1807 19.547 21.2759 19.6995 21.3414C19.852 21.4069 20.016 21.4414 20.182 21.4428C20.348 21.4443 20.5126 21.4126 20.6662 21.3498C20.8198 21.2869 20.9594 21.1941 21.0768 21.0768C21.1941 20.9594 21.2869 20.8198 21.3498 20.6662C21.4126 20.5126 21.4443 20.348 21.4428 20.182C21.4414 20.016 21.4069 19.852 21.3414 19.6995C21.2759 19.547 21.1807 19.4091 21.0613 19.2938L16.6425 14.875Z" fill="#2E2E2E" fill-opacity="0.6"/>
</g>
</svg>
