<svg width="25" height="18" viewBox="0 0 25 18" fill="none" xmlns="http://www.w3.org/2000/svg">
<path fill-rule="evenodd" clip-rule="evenodd" d="M24.4511 0.5496C24.8026 0.901214 25.0001 1.37804 25.0001 1.87522C25.0001 2.37241 24.8026 2.84923 24.4511 3.20085L10.3973 17.2546C10.2116 17.4404 9.99112 17.5877 9.74844 17.6883C9.50575 17.7888 9.24564 17.8405 8.98296 17.8405C8.72028 17.8405 8.46017 17.7888 8.21749 17.6883C7.97481 17.5877 7.75431 17.4404 7.56859 17.2546L0.586087 10.2733C0.407006 10.1004 0.264164 9.89349 0.165897 9.66473C0.0676303 9.43598 0.0159061 9.18994 0.0137427 8.94098C0.0115793 8.69202 0.0590202 8.44512 0.153297 8.21469C0.247573 7.98425 0.386798 7.77491 0.562847 7.59886C0.738896 7.42281 0.948243 7.28359 1.17867 7.18931C1.4091 7.09503 1.656 7.04759 1.90496 7.04975C2.15393 7.05192 2.39996 7.10364 2.62872 7.20191C2.85748 7.30018 3.06437 7.44302 3.23734 7.6221L8.98234 13.3671L21.7986 0.5496C21.9727 0.375362 22.1795 0.237143 22.407 0.142841C22.6346 0.048538 22.8785 0 23.1248 0C23.3712 0 23.6151 0.048538 23.8426 0.142841C24.0702 0.237143 24.277 0.375362 24.4511 0.5496Z" fill="#2E2E2E" fill-opacity="0.8"/>
</svg>
