<svg width="30" height="30" viewBox="0 0 30 30" fill="currentColor"
  xmlns="http://www.w3.org/2000/svg">
  <path d="M25.3125 3.75H10.3125C10.0639 3.75 9.8254 3.84877 9.64959 4.02459C9.47377 4.2004 9.375 4.43886 9.375 4.6875V9.375H4.6875C4.43886 9.375 4.2004 9.47377 4.02459 9.64959C3.84877 9.8254 3.75 10.0639 3.75 10.3125V25.3125C3.75 25.5611 3.84877 25.7996 4.02459 25.9754C4.2004 26.1512 4.43886 26.25 4.6875 26.25H19.6875C19.9361 26.25 20.1746 26.1512 20.3504 25.9754C20.5262 25.7996 20.625 25.5611 20.625 25.3125V20.625H25.3125C25.5611 20.625 25.7996 20.5262 25.9754 20.3504C26.1512 20.1746 26.25 19.9361 26.25 19.6875V4.6875C26.25 4.43886 26.1512 4.2004 25.9754 4.02459C25.7996 3.84877 25.5611 3.75 25.3125 3.75ZM18.75 24.375H5.625V11.25H18.75V24.375ZM24.375 18.75H20.625V10.3125C20.625 10.0639 20.5262 9.8254 20.3504 9.64959C20.1746 9.47377 19.9361 9.375 19.6875 9.375H11.25V5.625H24.375V18.75Z" fill-opacity="0.8"/>
</svg>
