<svg width="25" height="29" viewBox="0 0 25 29" fill="none" xmlns="http://www.w3.org/2000/svg">
<path d="M0 28.5916V2.9809C0 2.13115 0.317474 1.4222 0.952424 0.854058C1.58737 0.285915 2.37798 0.00122975 3.32423 0H21.3627C22.309 0 23.0996 0.284686 23.7345 0.854058C24.3695 1.42343 24.6862 2.13238 24.6849 2.9809V28.5916L12.3424 23.838L0 28.5916ZM2.05707 25.7324L12.3424 21.7665L22.6278 25.7324V2.9809C22.6278 2.69683 22.4962 2.43613 22.2328 2.19878C21.9695 1.96144 21.6788 1.84339 21.3606 1.84462H3.32423C3.00744 1.84462 2.71671 1.96267 2.45203 2.19878C2.18735 2.4349 2.0557 2.6956 2.05707 2.9809V25.7324Z" fill="black"/>
</svg>
