<svg width="38" height="38" viewBox="0 0 38 38" fill="none" xmlns="http://www.w3.org/2000/svg">
<path d="M30.3845 21.2629C30.3845 23.5011 29.7208 25.689 28.4773 27.55C27.2339 29.411 25.4665 30.8614 23.3987 31.7179C21.3309 32.5745 19.0555 32.7986 16.8603 32.3619C14.6651 31.9253 12.6487 30.8475 11.0661 29.2648C9.48346 27.6822 8.40567 25.6658 7.96902 23.4706C7.53237 21.2754 7.75648 19.0001 8.613 16.9323C9.46951 14.8645 10.92 13.0971 12.781 11.8536C14.6419 10.6101 16.8299 9.94643 19.068 9.94643H23.5946V15.6047L30.3845 8.81478L23.5946 2.0249V7.68314H19.068C16.3822 7.68314 13.7567 8.47957 11.5235 9.97174C9.29036 11.4639 7.5498 13.5848 6.52198 16.0661C5.49417 18.5475 5.22524 21.278 5.74922 23.9122C6.2732 26.5464 7.56654 28.9661 9.46571 30.8652C11.3649 32.7644 13.7846 34.0577 16.4188 34.5817C19.053 35.1057 21.7834 34.8368 24.2648 33.809C26.7462 32.7811 28.867 31.0406 30.3592 28.8074C31.8514 26.5742 32.6478 23.9487 32.6478 21.2629H30.3845Z" fill="#5A9BD8"/>
<path d="M23.1744 25.9368C22.6744 25.9491 22.1784 25.8445 21.7259 25.6313C21.3241 25.4274 20.9784 25.1282 20.7188 24.7599C20.4349 24.3299 20.2352 23.8499 20.1303 23.3454C19.9967 22.7206 19.9322 22.0831 19.9379 21.4442C19.9348 20.8055 19.9993 20.1682 20.1303 19.543C20.2378 19.0393 20.4373 18.5598 20.7188 18.1285C20.9784 17.7602 21.3241 17.461 21.7259 17.2571C22.1784 17.0439 22.6744 16.9393 23.1744 16.9516C23.6446 16.9158 24.1161 17.001 24.544 17.1991C24.9718 17.3972 25.3419 17.7016 25.6188 18.0832C26.2023 19.0868 26.4778 20.2399 26.4109 21.3989C26.4778 22.5579 26.2023 23.711 25.6188 24.7147C25.3524 25.1129 24.987 25.4351 24.5584 25.6494C24.1298 25.8636 23.6529 25.9627 23.1744 25.9368ZM23.1744 24.5562C23.4026 24.5699 23.6299 24.5186 23.8302 24.4085C24.0304 24.2984 24.1954 24.1338 24.3061 23.9338C24.5757 23.4042 24.7191 22.8193 24.7248 22.225V20.6634C24.7497 20.0797 24.6373 19.4983 24.3966 18.9659C24.2701 18.7721 24.0973 18.6129 23.8938 18.5027C23.6902 18.3925 23.4624 18.3348 23.231 18.3348C22.9996 18.3348 22.7718 18.3925 22.5683 18.5027C22.3647 18.6129 22.1919 18.7721 22.0654 18.9659C21.8247 19.4983 21.7123 20.0797 21.7372 20.6634V22.225C21.7147 22.8122 21.827 23.3968 22.0654 23.9338C22.1734 24.1311 22.3346 24.294 22.5307 24.4041C22.7267 24.5141 22.9498 24.5669 23.1744 24.5562ZM12.9896 25.7897V24.4544H15.2529V18.5811L13.148 19.7128L12.5256 18.5132L15.1511 17.0421H16.8033V24.3978H18.8176V25.7897H12.9896Z" fill="#5A9BD8"/>
</svg>
