<svg width="601" height="136" viewBox="0 0 601 136" fill="none" xmlns="http://www.w3.org/2000/svg">
<path d="M38.3586 101.699H48.5051C49.858 101.699 50.776 101.458 51.2592 100.974C51.7423 100.395 51.9839 99.4766 51.9839 98.2203V11.25C51.9839 9.8971 51.7423 8.97908 51.2592 8.49592C50.776 8.01275 49.858 7.77116 48.5051 7.77116H38.3586V3.13275H89.961C96.7253 3.13275 102.717 4.29235 107.935 6.61156C113.25 8.83413 117.357 12.023 120.256 16.1783C123.251 20.2369 124.749 24.8753 124.749 30.0935C124.749 35.4084 123.251 40.1435 120.256 44.2987C117.357 48.454 113.25 51.7395 107.935 54.1553C102.717 56.4746 96.7253 57.6342 89.961 57.6342H73.4366V98.2203C73.4366 99.4766 73.6782 100.395 74.1614 100.974C74.7412 101.458 75.6592 101.699 76.9154 101.699H89.6711V106.338H38.3586V101.699ZM87.7867 52.9957C92.8117 52.9957 96.3388 50.9664 98.3681 46.9078C100.494 42.8492 101.557 37.2444 101.557 30.0935C101.557 23.0393 100.542 17.5795 98.5131 13.7141C96.4838 9.75215 92.9083 7.77116 87.7867 7.77116H76.9154C75.6592 7.77116 74.7412 8.01275 74.1614 8.49592C73.6782 8.97908 73.4366 9.8971 73.4366 11.25V52.9957H87.7867ZM119.832 101.699H124.76C127.659 101.699 130.22 100.588 132.443 98.3653C134.665 96.0461 136.356 93.2437 137.516 89.9581L168.101 0.523635H174.189L205.208 94.3067C206.851 99.235 209.701 101.699 213.76 101.699H219.558V106.338H168.68V101.699H179.117C180.277 101.699 181.195 101.264 181.871 100.395C182.644 99.4282 183.031 98.3169 183.031 97.0607C183.031 95.9977 182.741 94.5966 182.161 92.8571L177.522 78.9419H147.083L144.039 87.7839C142.976 90.4896 142.444 92.9538 142.444 95.1764C142.444 96.9158 143.121 98.4619 144.474 99.8148C145.923 101.071 147.759 101.699 149.982 101.699H156.795V106.338H119.832V101.699ZM148.967 73.5787H175.783L162.593 33.7173L148.967 73.5787ZM231.72 101.699H241.867C243.22 101.699 244.138 101.458 244.621 100.974C245.104 100.395 245.346 99.4766 245.346 98.2203V11.25C245.346 9.8971 245.104 8.97908 244.621 8.49592C244.138 8.01275 243.22 7.77116 241.867 7.77116H231.72V3.13275H283.323C290.087 3.13275 296.078 4.29235 301.297 6.61156C306.611 8.83413 310.718 12.023 313.617 16.1783C316.613 20.2369 318.111 24.8753 318.111 30.0935C318.111 35.4084 316.613 40.1435 313.617 44.2987C310.718 48.454 306.611 51.7395 301.297 54.1553C296.078 56.4746 290.087 57.6342 283.323 57.6342H266.798V98.2203C266.798 99.4766 267.04 100.395 267.523 100.974C268.103 101.458 269.021 101.699 270.277 101.699H283.033V106.338H231.72V101.699ZM281.149 52.9957C286.173 52.9957 289.701 50.9664 291.73 46.9078C293.856 42.8492 294.919 37.2444 294.919 30.0935C294.919 23.0393 293.904 17.5795 291.875 13.7141C289.846 9.75215 286.27 7.77116 281.149 7.77116H270.277C269.021 7.77116 268.103 8.01275 267.523 8.49592C267.04 8.97908 266.798 9.8971 266.798 11.25V52.9957H281.149ZM333.497 101.699H343.644C344.997 101.699 345.915 101.458 346.398 100.974C346.881 100.395 347.123 99.4766 347.123 98.2203V11.25C347.123 9.8971 346.881 8.97908 346.398 8.49592C345.915 8.01275 344.997 7.77116 343.644 7.77116H333.497V3.13275H414.959L415.829 36.7613H411.191C411.191 36.0848 410.659 33.9106 409.596 30.2385C408.63 26.5664 407.229 23.2326 405.393 20.2369C403.17 16.3716 400.609 13.3276 397.71 11.105C394.811 8.88245 391.574 7.77116 387.999 7.77116H372.054C370.798 7.77116 369.88 8.01275 369.3 8.49592C368.817 8.97908 368.575 9.8971 368.575 11.25V51.2563H375.968C378.577 51.2563 380.993 50.1934 383.215 48.0674C385.438 45.9415 387.177 43.3324 388.433 40.2401C389.786 37.0512 390.463 34.0555 390.463 31.2532H395.101V76.6227H390.463C390.463 73.7237 389.786 70.728 388.433 67.6357C387.177 64.4468 385.438 61.7894 383.215 59.6635C380.993 57.5375 378.577 56.4746 375.968 56.4746H368.575V98.2203C368.575 99.4766 368.817 100.395 369.3 100.974C369.88 101.458 370.798 101.699 372.054 101.699H387.854C393.169 101.699 397.614 99.5732 401.189 95.3213C404.765 91.0694 407.47 86.3344 409.306 81.1161C410.079 78.8936 410.756 76.1395 411.336 72.854C411.915 69.5684 412.254 67.3942 412.35 66.3312H416.989L416.119 106.338H333.497V101.699ZM510.834 109.816C504.649 109.816 499.721 107.98 496.049 104.308C492.474 100.636 490.686 95.2247 490.686 88.0738V70.0999C490.686 65.4615 489.526 61.5478 487.207 58.3589C484.984 55.17 481.506 53.5755 476.771 53.5755H468.653V98.2203C468.653 99.4766 468.895 100.395 469.378 100.974C469.958 101.458 470.876 101.699 472.132 101.699H484.888V106.338H433.575V101.699H443.722C445.075 101.699 445.993 101.458 446.476 100.974C446.959 100.395 447.201 99.4766 447.201 98.2203V11.25C447.201 9.8971 446.959 8.97908 446.476 8.49592C445.993 8.01275 445.075 7.77116 443.722 7.77116H433.575V3.13275H480.539C490.976 3.13275 499.383 5.45195 505.761 10.0904C512.139 14.6322 515.327 20.8167 515.327 28.644C515.327 35.3118 512.863 40.5783 507.935 44.4437C503.103 48.309 496.677 50.7248 488.657 51.6912V52.7058C496.194 54.0587 501.992 56.7645 506.051 60.8231C510.109 64.7851 512.139 71.0179 512.139 79.5217V95.6112C512.139 99.6698 513.491 101.699 516.197 101.699C518.71 101.699 520.546 99.6215 521.705 95.4663C522.865 91.311 523.445 86.2377 523.445 80.2464H528.083C528.083 89.6199 526.827 96.9158 524.314 102.134C521.802 107.256 517.308 109.816 510.834 109.816ZM478.365 48.9371C483.487 48.9371 487.062 47.0528 489.091 43.284C491.121 39.5153 492.135 34.2488 492.135 27.4844C492.135 20.9133 491.121 15.985 489.091 12.6995C487.062 9.41394 483.487 7.77116 478.365 7.77116H472.132C470.876 7.77116 469.958 8.01275 469.378 8.49592C468.895 8.97908 468.653 9.8971 468.653 11.25V48.9371H478.365ZM550.763 108.077C547.478 108.077 544.772 107.014 542.646 104.888C540.52 102.762 539.457 100.056 539.457 96.7708C539.457 93.4853 540.52 90.7795 542.646 88.6536C544.772 86.5276 547.478 85.4647 550.763 85.4647C554.049 85.4647 556.755 86.5276 558.881 88.6536C561.007 90.7795 562.069 93.4853 562.069 96.7708C562.069 100.056 561.007 102.762 558.881 104.888C556.755 107.014 554.049 108.077 550.763 108.077Z" fill="#FAFAFA"/>
</svg>
