<svg width="601" height="136" viewBox="0 0 601 136" fill="none" xmlns="http://www.w3.org/2000/svg">
<rect x="37.7931" y="27.2048" width="524.721" height="107.263" fill="#A7C7E7"/>
<path d="M38.3586 101.465H48.5051C49.858 101.465 50.776 101.224 51.2592 100.741C51.7423 100.161 51.9839 99.2428 51.9839 97.9865V11.0162C51.9839 9.66333 51.7423 8.74531 51.2592 8.26214C50.776 7.77898 49.858 7.53739 48.5051 7.53739H38.3586V2.89897H89.961C96.7253 2.89897 102.717 4.05858 107.935 6.37779C113.25 8.60036 117.357 11.7893 120.256 15.9445C123.251 20.0031 124.749 24.6416 124.749 29.8598C124.749 35.1746 123.251 39.9097 120.256 44.0649C117.357 48.2202 113.25 51.5057 107.935 53.9216C102.717 56.2408 96.7253 57.4004 89.961 57.4004H73.4366V97.9865C73.4366 99.2428 73.6782 100.161 74.1614 100.741C74.7412 101.224 75.6592 101.465 76.9154 101.465H89.6711V106.104H38.3586V101.465ZM87.7867 52.762C92.8117 52.762 96.3388 50.7327 98.3681 46.674C100.494 42.6154 101.557 37.0107 101.557 29.8598C101.557 22.8055 100.542 17.3457 98.5131 13.4804C96.4838 9.51838 92.9083 7.53739 87.7867 7.53739H76.9154C75.6592 7.53739 74.7412 7.77898 74.1614 8.26214C73.6782 8.74531 73.4366 9.66333 73.4366 11.0162V52.762H87.7867ZM119.832 101.465H124.76C127.659 101.465 130.22 100.354 132.443 98.1315C134.665 95.8123 136.356 93.0099 137.516 89.7244L168.101 0.289862H174.189L205.208 94.0729C206.851 99.0012 209.701 101.465 213.76 101.465H219.558V106.104H168.68V101.465H179.117C180.277 101.465 181.195 101.031 181.871 100.161C182.644 99.1945 183.031 98.0832 183.031 96.8269C183.031 95.764 182.741 94.3628 182.161 92.6234L177.522 78.7081H147.083L144.039 87.5501C142.976 90.2558 142.444 92.72 142.444 94.9426C142.444 96.682 143.121 98.2281 144.474 99.581C145.923 100.837 147.759 101.465 149.982 101.465H156.795V106.104H119.832V101.465ZM148.967 73.3449H175.783L162.593 33.4835L148.967 73.3449ZM231.72 101.465H241.867C243.22 101.465 244.138 101.224 244.621 100.741C245.104 100.161 245.346 99.2428 245.346 97.9865V11.0162C245.346 9.66333 245.104 8.74531 244.621 8.26214C244.138 7.77898 243.22 7.53739 241.867 7.53739H231.72V2.89897H283.323C290.087 2.89897 296.078 4.05858 301.297 6.37779C306.611 8.60036 310.718 11.7893 313.617 15.9445C316.613 20.0031 318.111 24.6416 318.111 29.8598C318.111 35.1746 316.613 39.9097 313.617 44.0649C310.718 48.2202 306.611 51.5057 301.297 53.9216C296.078 56.2408 290.087 57.4004 283.323 57.4004H266.798V97.9865C266.798 99.2428 267.04 100.161 267.523 100.741C268.103 101.224 269.021 101.465 270.277 101.465H283.033V106.104H231.72V101.465ZM281.149 52.762C286.173 52.762 289.701 50.7327 291.73 46.674C293.856 42.6154 294.919 37.0107 294.919 29.8598C294.919 22.8055 293.904 17.3457 291.875 13.4804C289.846 9.51838 286.27 7.53739 281.149 7.53739H270.277C269.021 7.53739 268.103 7.77898 267.523 8.26214C267.04 8.74531 266.798 9.66333 266.798 11.0162V52.762H281.149ZM333.497 101.465H343.644C344.997 101.465 345.915 101.224 346.398 100.741C346.881 100.161 347.123 99.2428 347.123 97.9865V11.0162C347.123 9.66333 346.881 8.74531 346.398 8.26214C345.915 7.77898 344.997 7.53739 343.644 7.53739H333.497V2.89897H414.959L415.829 36.5275H411.191C411.191 35.8511 410.659 33.6768 409.596 30.0047C408.63 26.3326 407.229 22.9988 405.393 20.0031C403.17 16.1378 400.609 13.0938 397.71 10.8713C394.811 8.64868 391.574 7.53739 387.999 7.53739H372.054C370.798 7.53739 369.88 7.77898 369.3 8.26214C368.817 8.74531 368.575 9.66333 368.575 11.0162V51.0226H375.968C378.577 51.0226 380.993 49.9596 383.215 47.8336C385.438 45.7077 387.177 43.0986 388.433 40.0063C389.786 36.8174 390.463 33.8218 390.463 31.0194H395.101V76.3889H390.463C390.463 73.4899 389.786 70.4943 388.433 67.402C387.177 64.2131 385.438 61.5556 383.215 59.4297C380.993 57.3038 378.577 56.2408 375.968 56.2408H368.575V97.9865C368.575 99.2428 368.817 100.161 369.3 100.741C369.88 101.224 370.798 101.465 372.054 101.465H387.854C393.169 101.465 397.614 99.3394 401.189 95.0875C404.765 90.8356 407.47 86.1006 409.306 80.8824C410.079 78.6598 410.756 75.9057 411.336 72.6202C411.915 69.3346 412.254 67.1604 412.35 66.0974H416.989L416.119 106.104H333.497V101.465ZM510.834 109.583C504.649 109.583 499.721 107.747 496.049 104.074C492.474 100.402 490.686 94.9909 490.686 87.84V69.8661C490.686 65.2277 489.526 61.314 487.207 58.1251C484.984 54.9362 481.506 53.3418 476.771 53.3418H468.653V97.9865C468.653 99.2428 468.895 100.161 469.378 100.741C469.958 101.224 470.876 101.465 472.132 101.465H484.888V106.104H433.575V101.465H443.722C445.075 101.465 445.993 101.224 446.476 100.741C446.959 100.161 447.201 99.2428 447.201 97.9865V11.0162C447.201 9.66333 446.959 8.74531 446.476 8.26214C445.993 7.77898 445.075 7.53739 443.722 7.53739H433.575V2.89897H480.539C490.976 2.89897 499.383 5.21818 505.761 9.8566C512.139 14.3984 515.327 20.5829 515.327 28.4103C515.327 35.078 512.863 40.3445 507.935 44.2099C503.103 48.0752 496.677 50.4911 488.657 51.4574V52.4721C496.194 53.8249 501.992 56.5307 506.051 60.5893C510.109 64.5513 512.139 70.7842 512.139 79.2879V95.3774C512.139 99.436 513.491 101.465 516.197 101.465C518.71 101.465 520.546 99.3877 521.705 95.2325C522.865 91.0772 523.445 86.004 523.445 80.0127H528.083C528.083 89.3861 526.827 96.682 524.314 101.9C521.802 107.022 517.308 109.583 510.834 109.583ZM478.365 48.7033C483.487 48.7033 487.062 46.819 489.091 43.0503C491.121 39.2816 492.135 34.015 492.135 27.2507C492.135 20.6796 491.121 15.7513 489.091 12.4657C487.062 9.18016 483.487 7.53739 478.365 7.53739H472.132C470.876 7.53739 469.958 7.77898 469.378 8.26214C468.895 8.74531 468.653 9.66333 468.653 11.0162V48.7033H478.365ZM550.763 107.843C547.478 107.843 544.772 106.78 542.646 104.654C540.52 102.528 539.457 99.8226 539.457 96.537C539.457 93.2515 540.52 90.5457 542.646 88.4198C544.772 86.2939 547.478 85.2309 550.763 85.2309C554.049 85.2309 556.755 86.2939 558.881 88.4198C561.007 90.5457 562.069 93.2515 562.069 96.537C562.069 99.8226 561.007 102.528 558.881 104.654C556.755 106.78 554.049 107.843 550.763 107.843Z" fill="#2E2E2E"/>
</svg>
