<svg width="601" height="138" viewBox="0 0 601 138" fill="none" xmlns="http://www.w3.org/2000/svg">
<rect x="37.7931" y="30.5713" width="524.721" height="107.263" fill="#8BAFC9"/>
<path d="M38.3586 101.933H48.5051C49.858 101.933 50.776 101.691 51.2592 101.208C51.7423 100.628 51.9839 99.7103 51.9839 98.4541V11.4837C51.9839 10.1308 51.7423 9.21283 51.2592 8.72966C50.776 8.24649 49.858 8.00491 48.5051 8.00491H38.3586V3.36649H89.961C96.7253 3.36649 102.717 4.52609 107.935 6.8453C113.25 9.06787 117.357 12.2568 120.256 16.412C123.251 20.4706 124.749 25.1091 124.749 30.3273C124.749 35.6421 123.251 40.3772 120.256 44.5324C117.357 48.6877 113.25 51.9732 107.935 54.3891C102.717 56.7083 96.7253 57.8679 89.961 57.8679H73.4366V98.4541C73.4366 99.7103 73.6782 100.628 74.1614 101.208C74.7412 101.691 75.6592 101.933 76.9154 101.933H89.6711V106.571H38.3586V101.933ZM87.7867 53.2295C92.8117 53.2295 96.3388 51.2002 98.3681 47.1416C100.494 43.0829 101.557 37.4782 101.557 30.3273C101.557 23.273 100.542 17.8132 98.5131 13.9479C96.4838 9.98589 92.9083 8.00491 87.7867 8.00491H76.9154C75.6592 8.00491 74.7412 8.24649 74.1614 8.72966C73.6782 9.21283 73.4366 10.1308 73.4366 11.4837V53.2295H87.7867ZM119.832 101.933H124.76C127.659 101.933 130.22 100.822 132.443 98.599C134.665 96.2798 136.356 93.4774 137.516 90.1919L168.101 0.757376H174.189L205.208 94.5404C206.851 99.4687 209.701 101.933 213.76 101.933H219.558V106.571H168.68V101.933H179.117C180.277 101.933 181.195 101.498 181.871 100.628C182.644 99.662 183.031 98.5507 183.031 97.2945C183.031 96.2315 182.741 94.8303 182.161 93.0909L177.522 79.1756H147.083L144.039 88.0176C142.976 90.7234 142.444 93.1875 142.444 95.4101C142.444 97.1495 143.121 98.6956 144.474 100.049C145.923 101.305 147.759 101.933 149.982 101.933H156.795V106.571H119.832V101.933ZM148.967 73.8125H175.783L162.593 33.9511L148.967 73.8125ZM231.72 101.933H241.867C243.22 101.933 244.138 101.691 244.621 101.208C245.104 100.628 245.346 99.7103 245.346 98.4541V11.4837C245.346 10.1308 245.104 9.21283 244.621 8.72966C244.138 8.24649 243.22 8.00491 241.867 8.00491H231.72V3.36649H283.323C290.087 3.36649 296.078 4.52609 301.297 6.8453C306.611 9.06787 310.718 12.2568 313.617 16.412C316.613 20.4706 318.111 25.1091 318.111 30.3273C318.111 35.6421 316.613 40.3772 313.617 44.5324C310.718 48.6877 306.611 51.9732 301.297 54.3891C296.078 56.7083 290.087 57.8679 283.323 57.8679H266.798V98.4541C266.798 99.7103 267.04 100.628 267.523 101.208C268.103 101.691 269.021 101.933 270.277 101.933H283.033V106.571H231.72V101.933ZM281.149 53.2295C286.173 53.2295 289.701 51.2002 291.73 47.1416C293.856 43.0829 294.919 37.4782 294.919 30.3273C294.919 23.273 293.904 17.8132 291.875 13.9479C289.846 9.98589 286.27 8.00491 281.149 8.00491H270.277C269.021 8.00491 268.103 8.24649 267.523 8.72966C267.04 9.21283 266.798 10.1308 266.798 11.4837V53.2295H281.149ZM333.497 101.933H343.644C344.997 101.933 345.915 101.691 346.398 101.208C346.881 100.628 347.123 99.7103 347.123 98.4541V11.4837C347.123 10.1308 346.881 9.21283 346.398 8.72966C345.915 8.24649 344.997 8.00491 343.644 8.00491H333.497V3.36649H414.959L415.829 36.995H411.191C411.191 36.3186 410.659 34.1443 409.596 30.4722C408.63 26.8002 407.229 23.4663 405.393 20.4706C403.17 16.6053 400.609 13.5613 397.71 11.3388C394.811 9.11619 391.574 8.00491 387.999 8.00491H372.054C370.798 8.00491 369.88 8.24649 369.3 8.72966C368.817 9.21283 368.575 10.1308 368.575 11.4837V51.4901H375.968C378.577 51.4901 380.993 50.4271 383.215 48.3012C385.438 46.1752 387.177 43.5661 388.433 40.4738C389.786 37.2849 390.463 34.2893 390.463 31.4869H395.101V76.8564H390.463C390.463 73.9574 389.786 70.9618 388.433 67.8695C387.177 64.6806 385.438 62.0231 383.215 59.8972C380.993 57.7713 378.577 56.7083 375.968 56.7083H368.575V98.4541C368.575 99.7103 368.817 100.628 369.3 101.208C369.88 101.691 370.798 101.933 372.054 101.933H387.854C393.169 101.933 397.614 99.8069 401.189 95.555C404.765 91.3032 407.47 86.5681 409.306 81.3499C410.079 79.1273 410.756 76.3733 411.336 73.0877C411.915 69.8022 412.254 67.6279 412.35 66.5649H416.989L416.119 106.571H333.497V101.933ZM510.834 110.05C504.649 110.05 499.721 108.214 496.049 104.542C492.474 100.87 490.686 95.4584 490.686 88.3075V70.3336C490.686 65.6952 489.526 61.7816 487.207 58.5926C484.984 55.4037 481.506 53.8093 476.771 53.8093H468.653V98.4541C468.653 99.7103 468.895 100.628 469.378 101.208C469.958 101.691 470.876 101.933 472.132 101.933H484.888V106.571H433.575V101.933H443.722C445.075 101.933 445.993 101.691 446.476 101.208C446.959 100.628 447.201 99.7103 447.201 98.4541V11.4837C447.201 10.1308 446.959 9.21283 446.476 8.72966C445.993 8.24649 445.075 8.00491 443.722 8.00491H433.575V3.36649H480.539C490.976 3.36649 499.383 5.6857 505.761 10.3241C512.139 14.8659 515.327 21.0505 515.327 28.8778C515.327 35.5455 512.863 40.812 507.935 44.6774C503.103 48.5427 496.677 50.9586 488.657 51.9249V52.9396C496.194 54.2925 501.992 56.9982 506.051 61.0568C510.109 65.0188 512.139 71.2517 512.139 79.7554V95.8449C512.139 99.9036 513.491 101.933 516.197 101.933C518.71 101.933 520.546 99.8552 521.705 95.7C522.865 91.5447 523.445 86.4715 523.445 80.4802H528.083C528.083 89.8537 526.827 97.1495 524.314 102.368C521.802 107.489 517.308 110.05 510.834 110.05ZM478.365 49.1709C483.487 49.1709 487.062 47.2865 489.091 43.5178C491.121 39.7491 492.135 34.4825 492.135 27.7182C492.135 21.1471 491.121 16.2188 489.091 12.9332C487.062 9.64768 483.487 8.00491 478.365 8.00491H472.132C470.876 8.00491 469.958 8.24649 469.378 8.72966C468.895 9.21283 468.653 10.1308 468.653 11.4837V49.1709H478.365ZM550.763 108.311C547.478 108.311 544.772 107.248 542.646 105.122C540.52 102.996 539.457 100.29 539.457 97.0046C539.457 93.719 540.52 91.0133 542.646 88.8873C544.772 86.7614 547.478 85.6984 550.763 85.6984C554.049 85.6984 556.755 86.7614 558.881 88.8873C561.007 91.0133 562.069 93.719 562.069 97.0046C562.069 100.29 561.007 102.996 558.881 105.122C556.755 107.248 554.049 108.311 550.763 108.311Z" fill="#FAFAFA"/>
</svg>
