<svg width="41" height="40" viewBox="0 0 41 40" fill="none" xmlns="http://www.w3.org/2000/svg">
<rect x="0.455078" y="9.15527e-05" width="40" height="40" rx="20" fill="#D0E0F0"/>
<path d="M20.7884 14.1766H10.1217C9.4145 14.1766 8.73622 14.4493 8.23613 14.9346C7.73603 15.42 7.45508 16.0784 7.45508 16.7648V21.9413C7.45508 22.6277 7.73603 23.286 8.23613 23.7714C8.73622 24.2568 9.4145 24.5295 10.1217 24.5295H11.4551V29.706C11.4551 30.0492 11.5956 30.3784 11.8456 30.6211C12.0957 30.8637 12.4348 31.0001 12.7884 31.0001H15.4551C15.8087 31.0001 16.1478 30.8637 16.3979 30.6211C16.6479 30.3784 16.7884 30.0492 16.7884 29.706V24.5295H20.7884L27.4551 29.706V9.00009L20.7884 14.1766ZM33.4551 19.353C33.4551 21.566 32.1751 23.5719 30.1217 24.5295V14.1766C32.1617 15.1472 33.4551 17.153 33.4551 19.353Z" fill="#18181B"/>
</svg>
