<svg width="30" height="30" viewBox="0 0 30 30" fill="currentColor"
  xmlns="http://www.w3.org/2000/svg">
  <path fill-rule="evenodd" clip-rule="evenodd" d="M22.598 3.21289C22.474 2.7102 21.9659 2.40324 21.4632 2.52727C20.9605 2.65131 20.6536 3.15937 20.7776 3.66206L21.5475 6.78228C20.2887 5.92805 18.8655 5.33013 17.3591 5.03177C15.1506 4.59433 12.862 4.82036 10.7817 5.68138C8.70134 6.5424 6.92241 7.99989 5.66901 9.8702C4.41561 11.7405 3.74382 13.94 3.73828 16.1914C3.73701 16.7092 4.15571 17.1299 4.67348 17.1312C5.19124 17.1325 5.61201 16.7138 5.61328 16.196C5.6179 14.3147 6.17925 12.4768 7.22659 10.914C8.27393 9.3512 9.7604 8.13332 11.4987 7.41385C13.237 6.69439 15.1494 6.50551 16.9949 6.87104C18.4096 7.15124 19.7364 7.74763 20.8792 8.60891L17.2179 9.52422C16.7156 9.64979 16.4102 10.1588 16.5358 10.6611C16.6614 11.1634 17.1704 11.4688 17.6727 11.3432L21.8733 10.2931C22.1761 10.2264 22.4627 10.1001 22.7164 9.92167C22.9114 9.78451 23.084 9.61865 23.2283 9.43009C23.2847 9.36744 23.3311 9.29903 23.3676 9.22689C23.5304 8.96028 23.6383 8.66374 23.6847 8.35473C23.7314 8.04395 23.7151 7.72697 23.6367 7.42268L22.598 3.21289Z" fill-opacity="0.8"/>
  <path fill-rule="evenodd" clip-rule="evenodd" d="M26.2664 13.8085C26.2676 13.2907 25.8489 12.87 25.3311 12.8688C24.8133 12.8676 24.3926 13.2863 24.3914 13.8041C24.387 15.6856 23.8257 17.5238 22.7783 19.0868C21.731 20.6499 20.2443 21.868 18.5058 22.5875C16.7672 23.307 14.8546 23.4958 13.0089 23.13C11.5936 22.8495 10.2663 22.2526 9.12325 21.3906L12.7816 20.4758C13.2839 20.3502 13.5892 19.8411 13.4636 19.3388C13.338 18.8365 12.829 18.5312 12.3267 18.6568L8.12735 19.7069C7.8246 19.7737 7.53804 19.8998 7.28432 20.0782C7.07987 20.222 6.90008 20.3972 6.7515 20.5972C6.7142 20.6419 6.68173 20.6894 6.65408 20.7388C6.64917 20.7465 6.6443 20.7543 6.63948 20.7621C6.47294 21.0313 6.36269 21.3314 6.31538 21.6444C6.26838 21.9553 6.28446 22.2724 6.36261 22.5769L7.40143 26.7871C7.52546 27.2898 8.03352 27.5968 8.53621 27.4727C9.0389 27.3487 9.34587 26.8406 9.22183 26.338L8.45126 23.2149C9.71121 24.0711 11.1361 24.6703 12.6445 24.9692C14.8532 25.407 17.1422 25.181 19.2228 24.32C21.3034 23.4589 23.0825 22.0012 24.336 20.1306C25.5894 18.26 26.2611 16.0602 26.2664 13.8085Z" fill-opacity="0.8"/>
</svg>
