<svg width="40" height="40" viewBox="0 0 40 40" fill="none" xmlns="http://www.w3.org/2000/svg">
<g filter="url(#filter0_d_651_6965)">
<circle cx="20" cy="20" r="18" fill="white"/>
</g>
<g clip-path="url(#clip0_651_6965)">
<path d="M12.0607 11.398C12.5851 10.8773 12.5854 10.0292 12.0614 9.50805L11.5533 9.0028C11.033 8.4854 10.1922 8.48657 9.67334 9.00542V9.00542C9.15347 9.52529 9.15347 10.3682 9.67334 10.888L10.18 11.3947C10.699 11.9137 11.5399 11.9152 12.0607 11.398V11.398ZM9.33203 19.3334C9.33203 18.597 8.73508 18.0001 7.9987 18.0001H6.66536C5.92898 18.0001 5.33203 18.597 5.33203 19.3334V19.3334C5.33203 20.0698 5.92898 20.6667 6.66536 20.6667H7.9987C8.73508 20.6667 9.33203 20.0698 9.33203 19.3334V19.3334ZM21.332 6.06673C21.332 5.33035 20.7351 4.7334 19.9987 4.7334V4.7334C19.2623 4.7334 18.6654 5.33035 18.6654 6.06673V7.3334C18.6654 8.06978 19.2623 8.66673 19.9987 8.66673V8.66673C20.7351 8.66673 21.332 8.06978 21.332 7.3334V6.06673ZM30.3254 10.8867C30.8445 10.3676 30.8445 9.52588 30.3254 9.00673V9.00673C29.8062 8.48758 28.9645 8.48758 28.4454 9.00673L27.9387 9.5134C27.4195 10.0325 27.4195 10.8742 27.9387 11.3934V11.3934C28.4578 11.9125 29.2995 11.9125 29.8187 11.3934L30.3254 10.8867ZM27.9187 27.2801C27.4028 27.7959 27.4016 28.632 27.9161 29.1493L28.4347 29.6708C28.9519 30.1909 29.7933 30.1921 30.312 29.6734V29.6734C30.8308 29.1547 30.8296 28.3133 30.3094 27.796L29.788 27.2775C29.2706 26.763 28.4346 26.7642 27.9187 27.2801V27.2801ZM31.9987 18.0001C31.2623 18.0001 30.6654 18.597 30.6654 19.3334V19.3334C30.6654 20.0698 31.2623 20.6667 31.9987 20.6667H33.332C34.0684 20.6667 34.6654 20.0698 34.6654 19.3334V19.3334C34.6654 18.597 34.0684 18.0001 33.332 18.0001H31.9987ZM19.9987 11.3334C15.5854 11.3334 11.9987 14.9201 11.9987 19.3334C11.9987 23.7467 15.5854 27.3334 19.9987 27.3334C24.412 27.3334 27.9987 23.7467 27.9987 19.3334C27.9987 14.9201 24.412 11.3334 19.9987 11.3334ZM18.6654 32.6001C18.6654 33.3364 19.2623 33.9334 19.9987 33.9334V33.9334C20.7351 33.9334 21.332 33.3364 21.332 32.6001V31.3334C21.332 30.597 20.7351 30.0001 19.9987 30.0001V30.0001C19.2623 30.0001 18.6654 30.597 18.6654 31.3334V32.6001ZM9.6668 27.7801C9.15012 28.2996 9.15129 29.1393 9.66941 29.6574V29.6574C10.1896 30.1776 11.0333 30.1764 11.552 29.6548L12.0639 29.14C12.5806 28.6205 12.5794 27.7808 12.0613 27.2627V27.2627C11.5411 26.7425 10.6974 26.7437 10.1787 27.2653L9.6668 27.7801Z" fill="#939393"/>
</g>
<defs>
<filter id="filter0_d_651_6965" x="0" y="0" width="40" height="40" filterUnits="userSpaceOnUse" color-interpolation-filters="sRGB">
<feFlood flood-opacity="0" result="BackgroundImageFix"/>
<feColorMatrix in="SourceAlpha" type="matrix" values="0 0 0 0 0 0 0 0 0 0 0 0 0 0 0 0 0 0 127 0" result="hardAlpha"/>
<feOffset/>
<feGaussianBlur stdDeviation="1"/>
<feComposite in2="hardAlpha" operator="out"/>
<feColorMatrix type="matrix" values="0 0 0 0 0.2 0 0 0 0 0.2 0 0 0 0 0.2 0 0 0 0.25 0"/>
<feBlend mode="normal" in2="BackgroundImageFix" result="effect1_dropShadow_651_6965"/>
<feBlend mode="normal" in="SourceGraphic" in2="effect1_dropShadow_651_6965" result="shape"/>
</filter>
<clipPath id="clip0_651_6965">
<rect width="32" height="32" fill="white" transform="translate(4 4)"/>
</clipPath>
</defs>
</svg>
