<svg width="30" height="30" viewBox="0 0 30 30" fill="none" xmlns="http://www.w3.org/2000/svg">
<g id="wi:time-4">
<path id="Vector" d="M3.73999 14.4699C3.73999 12.4299 4.24999 10.5399 5.25999 8.80994C6.26999 7.07994 7.63999 5.70994 9.36999 4.69994C11.1 3.68994 12.98 3.18994 15.01 3.18994C16.53 3.18994 17.99 3.48994 19.38 4.07994C20.77 4.66994 21.96 5.47994 22.97 6.47994C23.98 7.47994 24.78 8.67994 25.37 10.0799C25.96 11.4799 26.26 12.9299 26.26 14.4699C26.26 15.9899 25.96 17.4499 25.37 18.8399C24.78 20.2299 23.97 21.4299 22.97 22.4299C21.97 23.4299 20.77 24.2299 19.38 24.8199C17.99 25.4099 16.54 25.7099 15.01 25.7099C13.48 25.7099 12.01 25.4099 10.62 24.8199C9.22999 24.2299 8.02999 23.4199 7.01999 22.4199C6.00999 21.4199 5.21999 20.2199 4.61999 18.8399C4.01999 17.4599 3.73999 15.9999 3.73999 14.4699ZM6.21999 14.4699C6.21999 16.8399 7.07999 18.8999 8.80999 20.6499C10.54 22.3799 12.6 23.2399 15.01 23.2399C16.59 23.2399 18.06 22.8499 19.4 22.0599C20.74 21.2699 21.82 20.2099 22.61 18.8599C23.4 17.5099 23.8 16.0499 23.8 14.4699C23.8 12.8899 23.4 11.4199 22.61 10.0699C21.82 8.71994 20.75 7.64994 19.4 6.85994C18.05 6.06994 16.59 5.67994 15.01 5.67994C13.43 5.67994 11.96 6.06994 10.62 6.85994C9.27999 7.64994 8.19999 8.71994 7.39999 10.0699C6.59999 11.4199 6.21999 12.8899 6.21999 14.4699ZM14.14 14.4699V7.80994C14.14 7.57994 14.22 7.37994 14.38 7.21994C14.54 7.05994 14.74 6.97994 14.97 6.97994C15.2 6.97994 15.4 7.05994 15.56 7.21994C15.72 7.37994 15.8 7.57994 15.8 7.80994V13.9599L19.39 16.0499C19.59 16.1699 19.71 16.3399 19.77 16.5599C19.83 16.7799 19.8 16.9899 19.68 17.1799C19.52 17.4599 19.28 17.5999 18.96 17.5999C18.79 17.5999 18.65 17.5599 18.54 17.4799L14.72 15.2499C14.55 15.1999 14.41 15.0999 14.3 14.9599C14.19 14.8199 14.14 14.6599 14.14 14.4699Z" fill="#2E2E2E" fill-opacity="0.6"/>
</g>
</svg>
