<svg width="58" height="58" viewBox="0 0 58 58" fill="none" xmlns="http://www.w3.org/2000/svg">
<path d="M29.0009 53.7598C42.5222 53.7598 53.7607 42.5451 53.7607 29C53.7607 15.4788 42.4973 4.24023 28.9761 4.24023C15.432 4.24023 4.24219 15.4788 4.24219 29C4.24219 42.5451 15.4559 53.7598 29.0009 53.7598ZM29.002 49.6335C17.5428 49.6335 8.39022 40.4571 8.39022 29C8.39022 17.5657 17.518 8.36652 28.9761 8.36652C40.4093 8.36652 49.6085 17.5668 49.6334 29C49.6572 40.4581 40.4332 49.6335 28.9999 49.6335M28.9999 27.6412C32.5193 27.665 35.3354 24.6552 35.3354 20.6977C35.3354 17.0085 32.5193 13.9252 28.9999 13.9252C25.4805 13.9252 22.6644 17.0085 22.6644 20.6988C22.6644 24.6552 25.4795 27.6173 28.9999 27.6412ZM17.6889 41.4048H40.2881C41.2596 41.4048 41.7454 40.7492 41.7454 39.875C41.7454 37.1563 37.6668 30.1414 29.0009 30.1414C20.3351 30.1414 16.2565 37.1563 16.2565 39.875C16.2565 40.7492 16.7422 41.4048 17.6889 41.4048Z" fill="#2E2E2E"/>
</svg>
