<svg width="385" height="135" viewBox="0 0 385 135" fill="none" xmlns="http://www.w3.org/2000/svg">
<path d="M35.4536 87.022H41.5415C42.3532 87.022 42.9041 86.8771 43.194 86.5872C43.4839 86.2393 43.6288 85.6885 43.6288 84.9347V32.7525C43.6288 31.9408 43.4839 31.39 43.194 31.1001C42.9041 30.8102 42.3532 30.6652 41.5415 30.6652H35.4536V27.8822H66.415C70.4737 27.8822 74.0684 28.5779 77.1994 29.9695C80.3883 31.303 82.8524 33.2164 84.5918 35.7095C86.3892 38.1447 87.2879 40.9277 87.2879 44.0587C87.2879 47.2476 86.3892 50.0886 84.5918 52.5817C82.8524 55.0749 80.3883 57.0462 77.1994 58.4957C74.0684 59.8873 70.4737 60.583 66.415 60.583H56.5004V84.9347C56.5004 85.6885 56.6454 86.2393 56.9353 86.5872C57.2831 86.8771 57.834 87.022 58.5877 87.022H66.2411V89.8051H35.4536V87.022ZM65.1105 57.8C68.1255 57.8 70.2417 56.5824 71.4593 54.1472C72.7349 51.712 73.3727 48.3492 73.3727 44.0587C73.3727 39.8261 72.7639 36.5502 71.5463 34.231C70.3287 31.8538 68.1834 30.6652 65.1105 30.6652H58.5877C57.834 30.6652 57.2831 30.8102 56.9353 31.1001C56.6454 31.39 56.5004 31.9408 56.5004 32.7525V57.8H65.1105ZM84.3377 87.022H87.2947C89.0341 87.022 90.5706 86.3552 91.9041 85.0217C93.2377 83.6302 94.2523 81.9487 94.9481 79.9774L113.299 26.3167H116.952L135.563 82.5865C136.549 85.5435 138.259 87.022 140.694 87.022H144.173V89.8051H113.647V87.022H119.909C120.604 87.022 121.155 86.7611 121.561 86.2393C122.025 85.6595 122.257 84.9927 122.257 84.239C122.257 83.6012 122.083 82.7605 121.735 81.7168L118.952 73.3677H100.688L98.8618 78.6729C98.224 80.2963 97.9051 81.7748 97.9051 83.1083C97.9051 84.152 98.311 85.0797 99.1227 85.8914C99.9924 86.6451 101.094 87.022 102.428 87.022H106.515V89.8051H84.3377V87.022ZM101.819 70.1498H117.908L109.994 46.2329L101.819 70.1498ZM151.471 87.022H157.559C158.37 87.022 158.921 86.8771 159.211 86.5872C159.501 86.2393 159.646 85.6885 159.646 84.9347V32.7525C159.646 31.9408 159.501 31.39 159.211 31.1001C158.921 30.8102 158.37 30.6652 157.559 30.6652H151.471V27.8822H182.432C186.491 27.8822 190.086 28.5779 193.216 29.9695C196.405 31.303 198.87 33.2164 200.609 35.7095C202.406 38.1447 203.305 40.9277 203.305 44.0587C203.305 47.2476 202.406 50.0886 200.609 52.5817C198.87 55.0749 196.405 57.0462 193.216 58.4957C190.086 59.8873 186.491 60.583 182.432 60.583H172.517V84.9347C172.517 85.6885 172.662 86.2393 172.952 86.5872C173.3 86.8771 173.851 87.022 174.605 87.022H182.258V89.8051H151.471V87.022ZM181.128 57.8C184.143 57.8 186.259 56.5824 187.476 54.1472C188.752 51.712 189.39 48.3492 189.39 44.0587C189.39 39.8261 188.781 36.5502 187.563 34.231C186.346 31.8538 184.201 30.6652 181.128 30.6652H174.605C173.851 30.6652 173.3 30.8102 172.952 31.1001C172.662 31.39 172.517 31.9408 172.517 32.7525V57.8H181.128ZM212.537 87.022H218.625C219.436 87.022 219.987 86.8771 220.277 86.5872C220.567 86.2393 220.712 85.6885 220.712 84.9347V32.7525C220.712 31.9408 220.567 31.39 220.277 31.1001C219.987 30.8102 219.436 30.6652 218.625 30.6652H212.537V27.8822H261.414L261.936 48.0593H259.153C259.153 47.6534 258.834 46.3489 258.196 44.1456C257.616 41.9424 256.776 39.9421 255.674 38.1447C254.34 35.8255 252.804 33.9991 251.065 32.6655C249.325 31.332 247.383 30.6652 245.238 30.6652H235.671C234.917 30.6652 234.366 30.8102 234.018 31.1001C233.729 31.39 233.584 31.9408 233.584 32.7525V56.7563H238.019C239.585 56.7563 241.034 56.1185 242.368 54.843C243.701 53.5674 244.745 52.0019 245.499 50.1466C246.31 48.2332 246.716 46.4358 246.716 44.7544H249.499V71.9761H246.716C246.716 70.2367 246.31 68.4393 245.499 66.584C244.745 64.6706 243.701 63.0762 242.368 61.8006C241.034 60.525 239.585 59.8873 238.019 59.8873H233.584V84.9347C233.584 85.6885 233.729 86.2393 234.018 86.5872C234.366 86.8771 234.917 87.022 235.671 87.022H245.151C248.34 87.022 251.007 85.7464 253.152 83.1953C255.297 80.6442 256.921 77.8031 258.022 74.6722C258.486 73.3387 258.892 71.6862 259.24 69.7149C259.588 67.7436 259.791 66.439 259.849 65.8012H262.632L262.11 89.8051H212.537V87.022ZM318.939 91.8923C315.228 91.8923 312.271 90.7907 310.068 88.5875C307.923 86.3842 306.85 83.1373 306.85 78.8468V68.0625C306.85 65.2794 306.154 62.9312 304.763 61.0179C303.429 59.1045 301.342 58.1478 298.501 58.1478H293.63V84.9347C293.63 85.6885 293.775 86.2393 294.065 86.5872C294.413 86.8771 294.964 87.022 295.718 87.022H303.371V89.8051H272.584V87.022H278.672C279.483 87.022 280.034 86.8771 280.324 86.5872C280.614 86.2393 280.759 85.6885 280.759 84.9347V32.7525C280.759 31.9408 280.614 31.39 280.324 31.1001C280.034 30.8102 279.483 30.6652 278.672 30.6652H272.584V27.8822H300.762C307.024 27.8822 312.068 29.2737 315.895 32.0567C319.722 34.7818 321.635 38.4926 321.635 43.189C321.635 47.1896 320.156 50.3495 317.199 52.6687C314.3 54.9879 310.445 56.4374 305.632 57.0172V57.626C310.155 58.4378 313.634 60.0612 316.069 62.4964C318.504 64.8736 319.722 68.6133 319.722 73.7155V83.3692C319.722 85.8044 320.533 87.022 322.157 87.022C323.664 87.022 324.766 85.7754 325.462 83.2823C326.157 80.7891 326.505 77.7452 326.505 74.1504H329.288C329.288 79.7745 328.535 84.152 327.027 87.2829C325.52 90.3559 322.824 91.8923 318.939 91.8923ZM299.457 55.3648C302.53 55.3648 304.676 54.2342 305.893 51.973C307.111 49.7117 307.72 46.5518 307.72 42.4932C307.72 38.5505 307.111 35.5935 305.893 33.6222C304.676 31.6509 302.53 30.6652 299.457 30.6652H295.718C294.964 30.6652 294.413 30.8102 294.065 31.1001C293.775 31.39 293.63 31.9408 293.63 32.7525V55.3648H299.457ZM342.896 90.8487C340.925 90.8487 339.302 90.2109 338.026 88.9354C336.751 87.6598 336.113 86.0363 336.113 84.065C336.113 82.0937 336.751 80.4702 338.026 79.1947C339.302 77.9191 340.925 77.2813 342.896 77.2813C344.868 77.2813 346.491 77.9191 347.767 79.1947C349.042 80.4702 349.68 82.0937 349.68 84.065C349.68 86.0363 349.042 87.6598 347.767 88.9354C346.491 90.2109 344.868 90.8487 342.896 90.8487Z" fill="#2E2E2E"/>
</svg>
