<svg width="385" height="135" viewBox="0 0 385 135" fill="none" xmlns="http://www.w3.org/2000/svg">
<path d="M35.4536 86.2558H41.5415C42.3532 86.2558 42.9041 86.1109 43.194 85.821C43.4839 85.4731 43.6288 84.9223 43.6288 84.1685V31.9863C43.6288 31.1746 43.4839 30.6238 43.194 30.3339C42.9041 30.044 42.3532 29.899 41.5415 29.899H35.4536V27.116H66.415C70.4737 27.116 74.0684 27.8118 77.1994 29.2033C80.3883 30.5368 82.8524 32.4502 84.5918 34.9433C86.3892 37.3785 87.2879 40.1615 87.2879 43.2925C87.2879 46.4814 86.3892 49.3224 84.5918 51.8156C82.8524 54.3087 80.3883 56.2801 77.1994 57.7296C74.0684 59.1211 70.4737 59.8168 66.415 59.8168H56.5004V84.1685C56.5004 84.9223 56.6454 85.4731 56.9353 85.821C57.2831 86.1109 57.834 86.2558 58.5877 86.2558H66.2411V89.0389H35.4536V86.2558ZM65.1105 57.0338C68.1255 57.0338 70.2417 55.8162 71.4593 53.381C72.7349 50.9459 73.3727 47.583 73.3727 43.2925C73.3727 39.0599 72.7639 35.784 71.5463 33.4648C70.3287 31.0876 68.1834 29.899 65.1105 29.899H58.5877C57.834 29.899 57.2831 30.044 56.9353 30.3339C56.6454 30.6238 56.5004 31.1746 56.5004 31.9863V57.0338H65.1105ZM84.3377 86.2558H87.2947C89.0341 86.2558 90.5706 85.5891 91.9041 84.2555C93.2377 82.864 94.2523 81.1826 94.9481 79.2112L113.299 25.5505H116.952L135.563 81.8203C136.549 84.7773 138.259 86.2558 140.694 86.2558H144.173V89.0389H113.647V86.2558H119.909C120.604 86.2558 121.155 85.9949 121.561 85.4731C122.025 84.8933 122.257 84.2265 122.257 83.4728C122.257 82.835 122.083 81.9943 121.735 80.9506L118.952 72.6015H100.688L98.8618 77.9067C98.224 79.5301 97.9051 81.0086 97.9051 82.3422C97.9051 83.3858 98.311 84.3135 99.1227 85.1252C99.9924 85.879 101.094 86.2558 102.428 86.2558H106.515V89.0389H84.3377V86.2558ZM101.819 69.3836H117.908L109.994 45.4667L101.819 69.3836ZM151.471 86.2558H157.559C158.37 86.2558 158.921 86.1109 159.211 85.821C159.501 85.4731 159.646 84.9223 159.646 84.1685V31.9863C159.646 31.1746 159.501 30.6238 159.211 30.3339C158.921 30.044 158.37 29.899 157.559 29.899H151.471V27.116H182.432C186.491 27.116 190.086 27.8118 193.216 29.2033C196.405 30.5368 198.87 32.4502 200.609 34.9433C202.406 37.3785 203.305 40.1615 203.305 43.2925C203.305 46.4814 202.406 49.3224 200.609 51.8156C198.87 54.3087 196.405 56.2801 193.216 57.7296C190.086 59.1211 186.491 59.8168 182.432 59.8168H172.517V84.1685C172.517 84.9223 172.662 85.4731 172.952 85.821C173.3 86.1109 173.851 86.2558 174.605 86.2558H182.258V89.0389H151.471V86.2558ZM181.128 57.0338C184.143 57.0338 186.259 55.8162 187.476 53.381C188.752 50.9459 189.39 47.583 189.39 43.2925C189.39 39.0599 188.781 35.784 187.563 33.4648C186.346 31.0876 184.201 29.899 181.128 29.899H174.605C173.851 29.899 173.3 30.044 172.952 30.3339C172.662 30.6238 172.517 31.1746 172.517 31.9863V57.0338H181.128ZM212.537 86.2558H218.625C219.436 86.2558 219.987 86.1109 220.277 85.821C220.567 85.4731 220.712 84.9223 220.712 84.1685V31.9863C220.712 31.1746 220.567 30.6238 220.277 30.3339C219.987 30.044 219.436 29.899 218.625 29.899H212.537V27.116H261.414L261.936 47.2931H259.153C259.153 46.8873 258.834 45.5827 258.196 43.3794C257.616 41.1762 256.776 39.1759 255.674 37.3785C254.34 35.0593 252.804 33.2329 251.065 31.8994C249.325 30.5658 247.383 29.899 245.238 29.899H235.671C234.917 29.899 234.366 30.044 234.018 30.3339C233.729 30.6238 233.584 31.1746 233.584 31.9863V55.9901H238.019C239.585 55.9901 241.034 55.3524 242.368 54.0768C243.701 52.8012 244.745 51.2358 245.499 49.3804C246.31 47.4671 246.716 45.6697 246.716 43.9882H249.499V71.21H246.716C246.716 69.4706 246.31 67.6732 245.499 65.8178C244.745 63.9045 243.701 62.31 242.368 61.0344C241.034 59.7589 239.585 59.1211 238.019 59.1211H233.584V84.1685C233.584 84.9223 233.729 85.4731 234.018 85.821C234.366 86.1109 234.917 86.2558 235.671 86.2558H245.151C248.34 86.2558 251.007 84.9803 253.152 82.4291C255.297 79.878 256.921 77.037 258.022 73.906C258.486 72.5725 258.892 70.9201 259.24 68.9487C259.588 66.9774 259.791 65.6728 259.849 65.0351H262.632L262.11 89.0389H212.537V86.2558ZM318.939 91.1262C315.228 91.1262 312.271 90.0245 310.068 87.8213C307.923 85.618 306.85 82.3712 306.85 78.0806V67.2963C306.85 64.5132 306.154 62.165 304.763 60.2517C303.429 58.3383 301.342 57.3817 298.501 57.3817H293.63V84.1685C293.63 84.9223 293.775 85.4731 294.065 85.821C294.413 86.1109 294.964 86.2558 295.718 86.2558H303.371V89.0389H272.584V86.2558H278.672C279.483 86.2558 280.034 86.1109 280.324 85.821C280.614 85.4731 280.759 84.9223 280.759 84.1685V31.9863C280.759 31.1746 280.614 30.6238 280.324 30.3339C280.034 30.044 279.483 29.899 278.672 29.899H272.584V27.116H300.762C307.024 27.116 312.068 28.5075 315.895 31.2906C319.722 34.0156 321.635 37.7264 321.635 42.4228C321.635 46.4234 320.156 49.5833 317.199 51.9025C314.3 54.2218 310.445 55.6713 305.632 56.2511V56.8599C310.155 57.6716 313.634 59.295 316.069 61.7302C318.504 64.1074 319.722 67.8471 319.722 72.9494V82.6031C319.722 85.0382 320.533 86.2558 322.157 86.2558C323.664 86.2558 324.766 85.0093 325.462 82.5161C326.157 80.023 326.505 76.979 326.505 73.3842H329.288C329.288 79.0083 328.535 83.3858 327.027 86.5167C325.52 89.5897 322.824 91.1262 318.939 91.1262ZM299.457 54.5986C302.53 54.5986 304.676 53.468 305.893 51.2068C307.111 48.9456 307.72 45.7856 307.72 41.727C307.72 37.7844 307.111 34.8274 305.893 32.856C304.676 30.8847 302.53 29.899 299.457 29.899H295.718C294.964 29.899 294.413 30.044 294.065 30.3339C293.775 30.6238 293.63 31.1746 293.63 31.9863V54.5986H299.457ZM342.896 90.0825C340.925 90.0825 339.302 89.4447 338.026 88.1692C336.751 86.8936 336.113 85.2702 336.113 83.2988C336.113 81.3275 336.751 79.7041 338.026 78.4285C339.302 77.1529 340.925 76.5152 342.896 76.5152C344.868 76.5152 346.491 77.1529 347.767 78.4285C349.042 79.7041 349.68 81.3275 349.68 83.2988C349.68 85.2702 349.042 86.8936 347.767 88.1692C346.491 89.4447 344.868 90.0825 342.896 90.0825Z" fill="#FAFAFA"/>
</svg>
