<svg width="601" height="135" viewBox="0 0 601 135" fill="none" xmlns="http://www.w3.org/2000/svg">
<path d="M38.3586 101.232H48.5051C49.858 101.232 50.776 100.99 51.2592 100.507C51.7423 99.9271 51.9839 99.0091 51.9839 97.7528V10.7825C51.9839 9.42961 51.7423 8.51159 51.2592 8.02843C50.776 7.54526 49.858 7.30367 48.5051 7.30367H38.3586V2.66525H89.961C96.7253 2.66525 102.717 3.82486 107.935 6.14407C113.25 8.36664 117.357 11.5556 120.256 15.7108C123.251 19.7694 124.749 24.4078 124.749 29.6261C124.749 34.9409 123.251 39.676 120.256 43.8312C117.357 47.9865 113.25 51.272 107.935 53.6879C102.717 56.0071 96.7253 57.1667 89.961 57.1667H73.4366V97.7528C73.4366 99.0091 73.6782 99.9271 74.1614 100.507C74.7412 100.99 75.6592 101.232 76.9154 101.232H89.6711V105.87H38.3586V101.232ZM87.7867 52.5282C92.8117 52.5282 96.3388 50.4989 98.3681 46.4403C100.494 42.3817 101.557 36.777 101.557 29.6261C101.557 22.5718 100.542 17.112 98.5131 13.2466C96.4838 9.28466 92.9083 7.30367 87.7867 7.30367H76.9154C75.6592 7.30367 74.7412 7.54526 74.1614 8.02843C73.6782 8.51159 73.4366 9.42961 73.4366 10.7825V52.5282H87.7867ZM119.832 101.232H124.76C127.659 101.232 130.22 100.12 132.443 97.8978C134.665 95.5786 136.356 92.7762 137.516 89.4906L168.101 0.0561435H174.189L205.208 93.8392C206.851 98.7675 209.701 101.232 213.76 101.232H219.558V105.87H168.68V101.232H179.117C180.277 101.232 181.195 100.797 181.871 99.9271C182.644 98.9607 183.031 97.8495 183.031 96.5932C183.031 95.5302 182.741 94.1291 182.161 92.3897L177.522 78.4744H147.083L144.039 87.3164C142.976 90.0221 142.444 92.4863 142.444 94.7089C142.444 96.4483 143.121 97.9944 144.474 99.3473C145.923 100.604 147.759 101.232 149.982 101.232H156.795V105.87H119.832V101.232ZM148.967 73.1112H175.783L162.593 33.2498L148.967 73.1112ZM231.72 101.232H241.867C243.22 101.232 244.138 100.99 244.621 100.507C245.104 99.9271 245.346 99.0091 245.346 97.7528V10.7825C245.346 9.42961 245.104 8.51159 244.621 8.02843C244.138 7.54526 243.22 7.30367 241.867 7.30367H231.72V2.66525H283.323C290.087 2.66525 296.078 3.82486 301.297 6.14407C306.611 8.36664 310.718 11.5556 313.617 15.7108C316.613 19.7694 318.111 24.4078 318.111 29.6261C318.111 34.9409 316.613 39.676 313.617 43.8312C310.718 47.9865 306.611 51.272 301.297 53.6879C296.078 56.0071 290.087 57.1667 283.323 57.1667H266.798V97.7528C266.798 99.0091 267.04 99.9271 267.523 100.507C268.103 100.99 269.021 101.232 270.277 101.232H283.033V105.87H231.72V101.232ZM281.149 52.5282C286.173 52.5282 289.701 50.4989 291.73 46.4403C293.856 42.3817 294.919 36.777 294.919 29.6261C294.919 22.5718 293.904 17.112 291.875 13.2466C289.846 9.28466 286.27 7.30367 281.149 7.30367H270.277C269.021 7.30367 268.103 7.54526 267.523 8.02843C267.04 8.51159 266.798 9.42961 266.798 10.7825V52.5282H281.149ZM333.497 101.232H343.644C344.997 101.232 345.915 100.99 346.398 100.507C346.881 99.9271 347.123 99.0091 347.123 97.7528V10.7825C347.123 9.42961 346.881 8.51159 346.398 8.02843C345.915 7.54526 344.997 7.30367 343.644 7.30367H333.497V2.66525H414.959L415.829 36.2938H411.191C411.191 35.6173 410.659 33.4431 409.596 29.771C408.63 26.0989 407.229 22.7651 405.393 19.7694C403.17 15.9041 400.609 12.8601 397.71 10.6375C394.811 8.41496 391.574 7.30367 387.999 7.30367H372.054C370.798 7.30367 369.88 7.54526 369.3 8.02843C368.817 8.51159 368.575 9.42961 368.575 10.7825V50.7888H375.968C378.577 50.7888 380.993 49.7259 383.215 47.5999C385.438 45.474 387.177 42.8649 388.433 39.7726C389.786 36.5837 390.463 33.588 390.463 30.7857H395.101V76.1552H390.463C390.463 73.2562 389.786 70.2605 388.433 67.1683C387.177 63.9793 385.438 61.3219 383.215 59.196C380.993 57.07 378.577 56.0071 375.968 56.0071H368.575V97.7528C368.575 99.0091 368.817 99.9271 369.3 100.507C369.88 100.99 370.798 101.232 372.054 101.232H387.854C393.169 101.232 397.614 99.1057 401.189 94.8538C404.765 90.6019 407.47 85.8669 409.306 80.6487C410.079 78.4261 410.756 75.672 411.336 72.3865C411.915 69.1009 412.254 66.9267 412.35 65.8637H416.989L416.119 105.87H333.497V101.232ZM510.834 109.349C504.649 109.349 499.721 107.513 496.049 103.841C492.474 100.169 490.686 94.7572 490.686 87.6063V69.6324C490.686 64.994 489.526 61.0803 487.207 57.8914C484.984 54.7025 481.506 53.108 476.771 53.108H468.653V97.7528C468.653 99.0091 468.895 99.9271 469.378 100.507C469.958 100.99 470.876 101.232 472.132 101.232H484.888V105.87H433.575V101.232H443.722C445.075 101.232 445.993 100.99 446.476 100.507C446.959 99.9271 447.201 99.0091 447.201 97.7528V10.7825C447.201 9.42961 446.959 8.51159 446.476 8.02843C445.993 7.54526 445.075 7.30367 443.722 7.30367H433.575V2.66525H480.539C490.976 2.66525 499.383 4.98446 505.761 9.62288C512.139 14.1647 515.327 20.3492 515.327 28.1766C515.327 34.8443 512.863 40.1108 507.935 43.9762C503.103 47.8415 496.677 50.2574 488.657 51.2237V52.2383C496.194 53.5912 501.992 56.297 506.051 60.3556C510.109 64.3176 512.139 70.5504 512.139 79.0542V95.1437C512.139 99.2023 513.491 101.232 516.197 101.232C518.71 101.232 520.546 99.154 521.705 94.9988C522.865 90.8435 523.445 85.7702 523.445 79.779H528.083C528.083 89.1524 526.827 96.4483 524.314 101.666C521.802 106.788 517.308 109.349 510.834 109.349ZM478.365 48.4696C483.487 48.4696 487.062 46.5853 489.091 42.8166C491.121 39.0478 492.135 33.7813 492.135 27.0169C492.135 20.4459 491.121 15.5175 489.091 12.232C487.062 8.94645 483.487 7.30367 478.365 7.30367H472.132C470.876 7.30367 469.958 7.54526 469.378 8.02843C468.895 8.51159 468.653 9.42961 468.653 10.7825V48.4696H478.365ZM550.763 107.609C547.478 107.609 544.772 106.546 542.646 104.421C540.52 102.295 539.457 99.5889 539.457 96.3033C539.457 93.0178 540.52 90.312 542.646 88.1861C544.772 86.0601 547.478 84.9972 550.763 84.9972C554.049 84.9972 556.755 86.0601 558.881 88.1861C561.007 90.312 562.069 93.0178 562.069 96.3033C562.069 99.5889 561.007 102.295 558.881 104.421C556.755 106.546 554.049 107.609 550.763 107.609Z" fill="#2E2E2E"/>
</svg>
