<svg width="33" height="30" viewBox="0 0 33 30" fill="none" xmlns="http://www.w3.org/2000/svg">
<path d="M29.772 13.3926L4.40033 1.95879C4.15651 1.84904 3.88647 1.7984 3.61562 1.81163C3.34477 1.82487 3.08202 1.90155 2.8521 2.03446C2.62218 2.16737 2.43265 2.35214 2.30135 2.57137C2.17005 2.7906 2.1013 3.03709 2.10156 3.28763V3.33003C2.10169 3.5281 2.12812 3.72541 2.18024 3.91753L4.61407 12.9105C4.6467 13.0303 4.7182 13.1381 4.81898 13.2192C4.91977 13.3004 5.04502 13.3512 5.17795 13.3648L15.8745 14.4635C16.0524 14.4832 16.2164 14.5626 16.3353 14.6865C16.4543 14.8103 16.52 14.9702 16.52 15.1358C16.52 15.3014 16.4543 15.4612 16.3353 15.5851C16.2164 15.709 16.0524 15.7883 15.8745 15.8081L5.17795 16.9067C5.04502 16.9203 4.91977 16.9711 4.81898 17.0523C4.7182 17.1335 4.6467 17.2412 4.61407 17.361L2.18024 26.3528C2.12812 26.5449 2.10169 26.7422 2.10156 26.9403V26.9827C2.10152 27.2331 2.17044 27.4795 2.30183 27.6985C2.43322 27.9176 2.62277 28.1022 2.85266 28.235C3.08254 28.3677 3.3452 28.4443 3.61595 28.4575C3.88669 28.4707 4.15661 28.42 4.40033 28.3103L29.7706 16.8765C30.124 16.7172 30.4218 16.4695 30.6301 16.1615C30.8384 15.8536 30.9488 15.4977 30.9488 15.1346C30.9488 14.7714 30.8384 14.4156 30.6301 14.1076C30.4218 13.7996 30.1253 13.5519 29.772 13.3926Z" fill="#18181B"/>
</svg>
