<svg width="26" height="26" viewBox="0 0 26 26" fill="none" xmlns="http://www.w3.org/2000/svg">
<g clip-path="url(#clip0_102_127)">
<path d="M12.8912 2.29517C10.774 2.29517 8.70431 2.92299 6.94392 4.09924C5.18353 5.2755 3.81148 6.94736 3.00126 8.9034C2.19104 10.8594 1.97905 13.0118 2.3921 15.0883C2.80514 17.1648 3.82467 19.0723 5.32176 20.5693C6.81885 22.0664 8.72625 23.086 10.8028 23.499C12.8793 23.9121 15.0317 23.7001 16.9877 22.8898C18.9437 22.0796 20.6156 20.7076 21.7919 18.9472C22.9681 17.1868 23.5959 15.1171 23.5959 12.9999C23.5959 10.1609 22.4681 7.43805 20.4606 5.43052C18.453 3.42299 15.7303 2.29517 12.8912 2.29517ZM17.4789 16.0584C17.4789 16.464 17.3178 16.853 17.031 17.1398C16.7442 17.4266 16.3553 17.5877 15.9497 17.5877H9.83267C9.42708 17.5877 9.03811 17.4266 8.75132 17.1398C8.46453 16.853 8.30342 16.464 8.30342 16.0584V9.94143C8.30342 9.53584 8.46453 9.14687 8.75132 8.86008C9.03811 8.57329 9.42708 8.41217 9.83267 8.41217H15.9497C16.3553 8.41217 16.7442 8.57329 17.031 8.86008C17.3178 9.14687 17.4789 9.53584 17.4789 9.94143V16.0584Z" fill="#5A9BD8"/>
<path d="M22.8842 1.53052H3.6593C2.21197 1.53052 1.03772 2.70476 1.03772 4.15209V23.377C1.03772 24.8243 2.21197 25.9986 3.6593 25.9986H22.8842C24.3315 25.9986 25.5058 24.8243 25.5058 23.377V4.15209C25.5058 2.70476 24.3315 1.53052 22.8842 1.53052Z" fill="#5A9BD8"/>
</g>
<defs>
<clipPath id="clip0_102_127">
<rect width="24.468" height="24.468" fill="white" transform="translate(0.65625 0.765991)"/>
</clipPath>
</defs>
</svg>
