<svg width="24" height="34" viewBox="0 0 24 34" fill="none" xmlns="http://www.w3.org/2000/svg">
<path d="M0 34V3.54477C0 2.53428 0.308666 1.69123 0.925999 1.01561C1.54333 0.34 2.312 0.00146237 3.232 0H20.77C21.69 0 22.4587 0.338537 23.076 1.01561C23.6933 1.69269 24.0013 2.53574 24 3.54477V34L12 28.3472L0 34ZM2 30.6L12 25.8839L22 30.6V3.54477C22 3.20697 21.872 2.89695 21.616 2.61471C21.36 2.33247 21.0773 2.19209 20.768 2.19355H3.232C2.924 2.19355 2.64133 2.33394 2.384 2.61471C2.12667 2.89548 1.99867 3.20551 2 3.54477V30.6Z" fill="#FAFAFA"/>
</svg>
